<svg xmlns="http://www.w3.org/2000/svg" width="31.208" height="31.208" viewBox="0 0 31.208 31.208">
  <path id="Icon_awesome-user-circle" data-name="Icon awesome-user-circle" d="M15.6.563a15.6,15.6,0,1,0,15.6,15.6A15.6,15.6,0,0,0,15.6.563Zm0,6.04a5.537,5.537,0,1,1-5.537,5.537A5.537,5.537,0,0,1,15.6,6.6Zm0,21.644a12.057,12.057,0,0,1-9.218-4.291,7.015,7.015,0,0,1,6.2-3.763,1.54,1.54,0,0,1,.447.069A8.331,8.331,0,0,0,15.6,20.7a8.3,8.3,0,0,0,2.573-.434,1.54,1.54,0,0,1,.447-.069,7.015,7.015,0,0,1,6.2,3.763A12.057,12.057,0,0,1,15.6,28.247Z" transform="translate(0 -0.563)" fill="#fff"/>
</svg>
