<svg xmlns="http://www.w3.org/2000/svg" width="23.063" height="23.063" viewBox="0 0 23.063 23.063">
  <path id="Icon_open-magnifying-glass" data-name="Icon open-magnifying-glass" d="M10-.016a10,10,0,1,0,0,20,9.883,9.883,0,0,0,4.743-1.171,2.857,2.857,0,0,0,.371.371l2.857,2.857a2.914,2.914,0,1,0,4.114-4.114l-2.857-2.857a2.857,2.857,0,0,0-.457-.371,9.865,9.865,0,0,0,1.257-4.743,10.011,10.011,0,0,0-10-10Zm0,2.857a7.109,7.109,0,0,1,7.143,7.143A7.164,7.164,0,0,1,15.256,14.9l-.086.086a2.857,2.857,0,0,0-.371.371,7.149,7.149,0,0,1-4.828,1.8,7.143,7.143,0,1,1,0-14.285Z" transform="translate(0 0.045)" fill="#fff"/>
</svg>
