<svg xmlns="http://www.w3.org/2000/svg" width="35.533" height="35.542" viewBox="0 0 35.533 35.542">
  <path id="Icon_ionic-ios-settings" data-name="Icon ionic-ios-settings" d="M37.1,22.267A4.572,4.572,0,0,1,40.033,18a18.124,18.124,0,0,0-2.193-5.284,4.634,4.634,0,0,1-1.86.4,4.562,4.562,0,0,1-4.173-6.422A18.069,18.069,0,0,0,26.532,4.5,4.568,4.568,0,0,1,18,4.5a18.124,18.124,0,0,0-5.284,2.193,4.562,4.562,0,0,1-4.173,6.422,4.483,4.483,0,0,1-1.86-.4A18.525,18.525,0,0,0,4.5,18.01a4.571,4.571,0,0,1,.009,8.532A18.124,18.124,0,0,0,6.7,31.825a4.564,4.564,0,0,1,6.024,6.024,18.23,18.23,0,0,0,5.284,2.193,4.56,4.56,0,0,1,8.513,0,18.124,18.124,0,0,0,5.284-2.193,4.569,4.569,0,0,1,6.024-6.024,18.23,18.23,0,0,0,2.193-5.284A4.594,4.594,0,0,1,37.1,22.267ZM22.35,29.66a7.4,7.4,0,1,1,7.4-7.4A7.4,7.4,0,0,1,22.35,29.66Z" transform="translate(-4.5 -4.5)" fill="#206876"/>
</svg>
